[{"url":"https://api.github.com/repos/k4yt3x/video2x/issues/comments/487765518","html_url":"https://github.com/k4yt3x/video2x/issues/86#issuecomment-487765518","issue_url":"https://api.github.com/repos/k4yt3x/video2x/issues/86","id":487765518,"node_id":"MDEyOklzc3VlQ29tbWVudDQ4Nzc2NTUxOA==","user":{"login":"metzo007","id":49093328,"node_id":"MDQ6VXNlcjQ5MDkzMzI4","avatar_url":"https://avatars.githubusercontent.com/u/49093328?v=4","gravatar_id":"","url":"https://api.github.com/users/metzo007","html_url":"https://github.com/metzo007","followers_url":"https://api.github.com/users/metzo007/followers","following_url":"https://api.github.com/users/metzo007/following{/other_user}","gists_url":"https://api.github.com/users/metzo007/gists{/gist_id}","starred_url":"https://api.github.com/users/metzo007/starred{/owner}{/repo}","subscriptions_url":"https://api.github.com/users/metzo007/subscriptions","organizations_url":"https://api.github.com/users/metzo007/orgs","repos_url":"https://api.github.com/users/metzo007/repos","events_url":"https://api.github.com/users/metzo007/events{/privacy}","received_events_url":"https://api.github.com/users/metzo007/received_events","type":"User","site_admin":false},"created_at":"2019-04-29T22:25:25Z","updated_at":"2019-04-29T22:25:25Z","author_association":"NONE","body":"This is just me, but I remame the videos to 1.mp4 and put them into D:/ to avoid any error regarding this issue","reactions":{"url":"https://api.github.com/repos/k4yt3x/video2x/issues/comments/487765518/reactions","total_count":0,"+1":0,"-1":0,"laugh":0,"hooray":0,"confused":0,"heart":0,"rocket":0,"eyes":0},"performed_via_github_app":null,"event":"commented","actor":{"login":"metzo007","id":49093328,"node_id":"MDQ6VXNlcjQ5MDkzMzI4","avatar_url":"https://avatars.githubusercontent.com/u/49093328?v=4","gravatar_id":"","url":"https://api.github.com/users/metzo007","html_url":"https://github.com/metzo007","followers_url":"https://api.github.com/users/metzo007/followers","following_url":"https://api.github.com/users/metzo007/following{/other_user}","gists_url":"https://api.github.com/users/metzo007/gists{/gist_id}","starred_url":"https://api.github.com/users/metzo007/starred{/owner}{/repo}","subscriptions_url":"https://api.github.com/users/metzo007/subscriptions","organizations_url":"https://api.github.com/users/metzo007/orgs","repos_url":"https://api.github.com/users/metzo007/repos","events_url":"https://api.github.com/users/metzo007/events{/privacy}","received_events_url":"https://api.github.com/users/metzo007/received_events","type":"User","site_admin":false}},{"url":"https://api.github.com/repos/k4yt3x/video2x/issues/comments/487773318","html_url":"https://github.com/k4yt3x/video2x/issues/86#issuecomment-487773318","issue_url":"https://api.github.com/repos/k4yt3x/video2x/issues/86","id":487773318,"node_id":"MDEyOklzc3VlQ29tbWVudDQ4Nzc3MzMxOA==","user":{"login":"nostalgicc","id":38463032,"node_id":"MDQ6VXNlcjM4NDYzMDMy","avatar_url":"https://avatars.githubusercontent.com/u/38463032?v=4","gravatar_id":"","url":"https://api.github.com/users/nostalgicc","html_url":"https://github.com/nostalgicc","followers_url":"https://api.github.com/users/nostalgicc/followers","following_url":"https://api.github.com/users/nostalgicc/following{/other_user}","gists_url":"https://api.github.com/users/nostalgicc/gists{/gist_id}","starred_url":"https://api.github.com/users/nostalgicc/starred{/owner}{/repo}","subscriptions_url":"https://api.github.com/users/nostalgicc/subscriptions","organizations_url":"https://api.github.com/users/nostalgicc/orgs","repos_url":"https://api.github.com/users/nostalgicc/repos","events_url":"https://api.github.com/users/nostalgicc/events{/privacy}","received_events_url":"https://api.github.com/users/nostalgicc/received_events","type":"User","site_admin":false},"created_at":"2019-04-29T23:02:26Z","updated_at":"2019-04-29T23:06:36Z","author_association":"NONE","body":"I renamed the output to test.mp4 and got a 265kb \"blank\" mp4 file instead...\r\n\r\n```\r\nUpscaling Progress:  50%|##########################9                           | 4780/9562 [8:43:55<8:33:48,  6.45s/it] 変変換換にに成成功しま功した\r\nました\r\n2019-04-30 05:59:46.646791 [+] INFO: [upscaler] Thread 0 exiting\r\n2019-04-30 05:59:46.666737 [+] INFO: [upscaler] Thread 1 exiting\r\n2019-04-30 05:59:46.666737 [+] INFO: Killing upscaled image cleaner\r\n[+] INFO: Upscaling completed\r\n[+] INFO: Converting extracted frames into video\r\n2019-04-30 05:59:47.001842 [+] INFO: Executing: ['C:\\\\Users\\\\Administrator\\\\AppData\\\\Local\\\\video2x\\\\ffmpeg-latest-win64-static\\\\bin\\\\ffmpeg.exe', '-r', '23.976023976023978', '-s', '3840x2160', '-i', 'C:\\\\Users\\\\ADMINI~1\\\\AppData\\\\Local\\\\Temp\\\\video2x\\\\tmpwtl5o7q9\\\\extracted_%d.png', 'C:\\\\Users\\\\ADMINI~1\\\\AppData\\\\Local\\\\Temp\\\\video2x\\\\tmpwtl5o7q9\\\\no_audio.mp4', '-f', 'image2', '-vcodec', 'libx264', '-crf', '17', '-pix_fmt', 'yuv420p', '-hwaccel', 'auto', '-y']\r\nffmpeg version N-93686-g8019395889 Copyright (c) 2000-2019 the FFmpeg developers\r\n  built with gcc 8.3.1 (GCC) 20190414\r\n  configuration: --enable-gpl --enable-version3 --enable-sdl2 --enable-fontconfig --enable-gnutls --enable-iconv --enable-libass --enable-libdav1d --enable-libbluray --enable-libfreetype --enable-libmp3lame --enable-libopencore-amrnb --enable-libopencore-amrwb --enable-libopenjpeg --enable-libopus --enable-libshine --enable-libsnappy --enable-libsoxr --enable-libtheora --enable-libtwolame --enable-libvpx --enable-libwavpack --enable-libwebp --enable-libx264 --enable-libx265 --enable-libxml2 --enable-libzimg --enable-lzma --enable-zlib --enable-gmp --enable-libvidstab --enable-libvorbis --enable-libvo-amrwbenc --enable-libmysofa --enable-libspeex --enable-libxvid --enable-libaom --enable-libmfx --enable-amf --enable-ffnvcodec --enable-cuvid --enable-d3d11va --enable-nvenc --enable-nvdec --enable-dxva2 --enable-avisynth --enable-libopenmpt\r\n  libavutil      56. 26.100 / 56. 26.100\r\n  libavcodec     58. 52.100 / 58. 52.100\r\n  libavformat    58. 27.103 / 58. 27.103\r\n  libavdevice    58.  7.100 / 58.  7.100\r\n  libavfilter     7. 50.100 /  7. 50.100\r\n  libswscale      5.  4.100 /  5.  4.100\r\n  libswresample   3.  4.100 /  3.  4.100\r\n  libpostproc    55.  4.100 / 55.  4.100\r\nTrailing options were found on the commandline.\r\n\r\nInput #0, image2, from 'C:\\Users\\ADMINI~1\\AppData\\Local\\Temp\\video2x\\tmpwtl5o7q9\\extracted_%d.png':\r\n  Duration: 00:00:00.04, start: 0.000000, bitrate: N/A\r\n    Stream #0:0: Video: png, rgb24(pc), 3840x2160, 25 tbr, 25 tbn, 25 tbc\r\nStream mapping:\r\n  Stream #0:0 -> #0:0 (png (native) -> h264 (libx264))\r\nPress [q] to stop, [?] for help\r\n[libx264 @ 00000205ac67f280] using cpu capabilities: MMX2 SSE2Fast SSSE3 SSE4.2 AVX FMA3 BMI2 AVX2\r\n[libx264 @ 00000205ac67f280] profile High 4:4:4 Predictive, level 5.1, 4:4:4, 8-bit\r\n[libx264 @ 00000205ac67f280] 264 - core 157 r2970 5493be8 - H.264/MPEG-4 AVC codec - Copyleft 2003-2019 - http://www.videolan.org/x264.html - options: cabac=1 ref=3 deblock=1:0:0 analyse=0x3:0x113 me=hex subme=7 psy=1 psy_rd=1.00:0.00 mixed_ref=1 me_range=16 chroma_me=1 trellis=1 8x8dct=1 cqm=0 deadzone=21,11 fast_pskip=1 chroma_qp_offset=4 threads=12 lookahead_threads=2 sliced_threads=0 nr=0 decimate=1 interlaced=0 bluray_compat=0 constrained_intra=0 bframes=3 b_pyramid=2 b_adapt=1 b_bias=0 direct=1 weightb=1 open_gop=0 weightp=2 keyint=250 keyint_min=23 scenecut=40 intra_refresh=0 rc_lookahead=40 rc=crf mbtree=1 crf=23.0 qcomp=0.60 qpmin=0 qpmax=69 qpstep=4 ip_ratio=1.40 aq=1:1.00\r\nOutput #0, mp4, to 'C:\\Users\\ADMINI~1\\AppData\\Local\\Temp\\video2x\\tmpwtl5o7q9\\no_audio.mp4':\r\n  Metadata:\r\n    encoder         : Lavf58.27.103\r\n    Stream #0:0: Video: h264 (libx264) (avc1 / 0x31637661), yuv444p, 3840x2160, q=-1--1, 23.98 fps, 24k tbn, 23.98 tbc\r\n    Metadata:\r\n      encoder         : Lavc58.52.100 libx264\r\n    Side data:\r\n      cpb: bitrate max/min/avg: 0/0/0 buffer size: 0 vbv_delay: -1\r\nframe=    1 fps=0.0 q=28.0 Lsize=      93kB time=00:00:00.00 bitrate=18052952.4kbits/s speed=0.000111x\r\nvideo:92kB audio:0kB subtitle:0kB other streams:0kB global headers:0kB muxing overhead: 0.850190%\r\n[libx264 @ 00000205ac67f280] frame I:1     Avg QP:22.77  size: 93290\r\n[libx264 @ 00000205ac67f280] mb I  I16..4: 47.8% 50.8%  1.4%\r\n[libx264 @ 00000205ac67f280] 8x8 transform intra:50.8%\r\n[libx264 @ 00000205ac67f280] coded y,u,v intra: 15.7% 7.3% 5.8%\r\n[libx264 @ 00000205ac67f280] i16 v,h,dc,p: 22% 27%  6% 45%\r\n[libx264 @ 00000205ac67f280] i8 v,h,dc,ddl,ddr,vr,hd,vl,hu: 30% 22% 25%  5%  4%  4%  4%  3%  4%\r\n[libx264 @ 00000205ac67f280] i4 v,h,dc,ddl,ddr,vr,hd,vl,hu: 23% 19% 14%  4% 14% 11%  9%  4%  3%\r\n[libx264 @ 00000205ac67f280] kb/s:17893.79\r\n[+] INFO: Conversion completed\r\n[+] INFO: Migrating audio tracks and subtitles to upscaled video\r\n2019-04-30 05:59:47.686039 [+] INFO: Executing: ['C:\\\\Users\\\\Administrator\\\\AppData\\\\Local\\\\video2x\\\\ffmpeg-latest-win64-static\\\\bin\\\\ffmpeg.exe', '-i', 'C:\\\\Users\\\\ADMINI~1\\\\AppData\\\\Local\\\\Temp\\\\video2x\\\\tmpwtl5o7q9\\\\no_audio.mp4', '-i', 'E:\\\\[POPGO][FREEWIND][Macross_Do_you_remember_love][Full_HD-BDRIP][AVC_DTS].mpeg', 'D:\\\\test.mp4', '-map', '-1:v?', '-c', 'copy', '-hwaccel', 'auto', '-y']\r\nffmpeg version N-93686-g8019395889 Copyright (c) 2000-2019 the FFmpeg developers\r\n  built with gcc 8.3.1 (GCC) 20190414\r\n  configuration: --enable-gpl --enable-version3 --enable-sdl2 --enable-fontconfig --enable-gnutls --enable-iconv --enable-libass --enable-libdav1d --enable-libbluray --enable-libfreetype --enable-libmp3lame --enable-libopencore-amrnb --enable-libopencore-amrwb --enable-libopenjpeg --enable-libopus --enable-libshine --enable-libsnappy --enable-libsoxr --enable-libtheora --enable-libtwolame --enable-libvpx --enable-libwavpack --enable-libwebp --enable-libx264 --enable-libx265 --enable-libxml2 --enable-libzimg --enable-lzma --enable-zlib --enable-gmp --enable-libvidstab --enable-libvorbis --enable-libvo-amrwbenc --enable-libmysofa --enable-libspeex --enable-libxvid --enable-libaom --enable-libmfx --enable-amf --enable-ffnvcodec --enable-cuvid --enable-d3d11va --enable-nvenc --enable-nvdec --enable-dxva2 --enable-avisynth --enable-libopenmpt\r\n  libavutil      56. 26.100 / 56. 26.100\r\n  libavcodec     58. 52.100 / 58. 52.100\r\n  libavformat    58. 27.103 / 58. 27.103\r\n  libavdevice    58.  7.100 / 58.  7.100\r\n  libavfilter     7. 50.100 /  7. 50.100\r\n  libswscale      5.  4.100 /  5.  4.100\r\n  libswresample   3.  4.100 /  3.  4.100\r\n  libpostproc    55.  4.100 / 55.  4.100\r\nTrailing options were found on the commandline.\r\nInput #0, mov,mp4,m4a,3gp,3g2,mj2, from 'C:\\Users\\ADMINI~1\\AppData\\Local\\Temp\\video2x\\tmpwtl5o7q9\\no_audio.mp4':\r\n  Metadata:\r\n    major_brand     : isom\r\n    minor_version   : 512\r\n    compatible_brands: isomiso2avc1mp41\r\n    encoder         : Lavf58.27.103\r\n  Duration: 00:00:00.04, start: 0.000000, bitrate: 18052 kb/s\r\n    Stream #0:0(und): Video: h264 (High 4:4:4 Predictive) (avc1 / 0x31637661), yuv444p, 3840x2160, 18026 kb/s, 23.98 fps, 23.98 tbr, 24k tbn, 47.95 tbc (default)\r\n    Metadata:\r\n      handler_name    : VideoHandler\r\nInput #1, mpeg, from 'E:\\[POPGO][FREEWIND][Macross_Do_you_remember_love][Full_HD-BDRIP][AVC_DTS].mpeg':\r\n  Duration: 00:06:38.89, start: 0.460233, bitrate: 25334 kb/s\r\n    Stream #1:0[0x1e0]: Video: mpeg2video (High), yuv420p(tv, unknown/bt709/unknown, progressive), 1920x1080 [SAR 1:1 DAR 16:9], 24858 kb/s, 23.98 fps, 23.98 tbr, 90k tbn, 47.95 tbc\r\n    Stream #1:1[0x1c0]: Audio: mp2, 44100 Hz, stereo, fltp, 384 kb/s\r\nStream mapping:\r\n  Stream #0:0 -> #0:0 (h264 (native) -> h264 (libx264))\r\n  Stream #1:1 -> #0:1 (mp2 (native) -> aac (native))\r\nPress [q] to stop, [?] for help\r\n[libx264 @ 0000019d2a0daf00] using cpu capabilities: MMX2 SSE2Fast SSSE3 SSE4.2 AVX FMA3 BMI2 AVX2\r\n[libx264 @ 0000019d2a0daf00] profile High 4:4:4 Predictive, level 5.1, 4:4:4, 8-bit\r\n[libx264 @ 0000019d2a0daf00] 264 - core 157 r2970 5493be8 - H.264/MPEG-4 AVC codec - Copyleft 2003-2019 - http://www.videolan.org/x264.html - options: cabac=1 ref=3 deblock=1:0:0 analyse=0x3:0x113 me=hex subme=7 psy=1 psy_rd=1.00:0.00 mixed_ref=1 me_range=16 chroma_me=1 trellis=1 8x8dct=1 cqm=0 deadzone=21,11 fast_pskip=1 chroma_qp_offset=4 threads=12 lookahead_threads=2 sliced_threads=0 nr=0 decimate=1 interlaced=0 bluray_compat=0 constrained_intra=0 bframes=3 b_pyramid=2 b_adapt=1 b_bias=0 direct=1 weightb=1 open_gop=0 weightp=2 keyint=250 keyint_min=23 scenecut=40 intra_refresh=0 rc_lookahead=40 rc=crf mbtree=1 crf=23.0 qcomp=0.60 qpmin=0 qpmax=69 qpstep=4 ip_ratio=1.40 aq=1:1.00\r\nOutput #0, mp4, to 'D:\\test.mp4':\r\n  Metadata:\r\n    major_brand     : isom\r\n    minor_version   : 512\r\n    compatible_brands: isomiso2avc1mp41\r\n    encoder         : Lavf58.27.103\r\n    Stream #0:0(und): Video: h264 (libx264) (avc1 / 0x31637661), yuv444p(progressive), 3840x2160, q=-1--1, 23.98 fps, 24k tbn, 23.98 tbc (default)\r\n    Metadata:\r\n      handler_name    : VideoHandler\r\n      encoder         : Lavc58.52.100 libx264\r\n    Side data:\r\n      cpb: bitrate max/min/avg: 0/0/0 buffer size: 0 vbv_delay: -1\r\n    Stream #0:1: Audio: aac (LC) (mp4a / 0x6134706D), 44100 Hz, stereo, fltp, 128 kb/s\r\n    Metadata:\r\n      encoder         : Lavc58.52.100 aac\r\nframe=    1 fps=0.6 q=28.0 Lsize=     264kB time=00:06:38.89 bitrate=   5.4kbits/s speed= 256x\r\nvideo:94kB audio:102kB subtitle:0kB other streams:0kB global headers:0kB muxing overhead: 34.924129%\r\n[libx264 @ 0000019d2a0daf00] frame I:1     Avg QP:21.99  size: 95750\r\n[libx264 @ 0000019d2a0daf00] mb I  I16..4: 50.2% 48.6%  1.2%\r\n[libx264 @ 0000019d2a0daf00] 8x8 transform intra:48.6%\r\n[libx264 @ 0000019d2a0daf00] coded y,u,v intra: 14.9% 7.6% 5.5%\r\n[libx264 @ 0000019d2a0daf00] i16 v,h,dc,p: 26% 28%  6% 39%\r\n[libx264 @ 0000019d2a0daf00] i8 v,h,dc,ddl,ddr,vr,hd,vl,hu: 27% 23% 26%  5%  4%  4%  4%  3%  4%\r\n[libx264 @ 0000019d2a0daf00] i4 v,h,dc,ddl,ddr,vr,hd,vl,hu: 23% 18% 14%  4% 13% 12% 10%  4%  3%\r\n[libx264 @ 0000019d2a0daf00] kb/s:18365.63\r\n[aac @ 0000019d2800c8c0] Qavg: 65536.000\r\nCleaning up cache directory: C:\\Users\\ADMINI~1\\AppData\\Local\\Temp\\video2x\\tmp90kfmh9z\r\nCleaning up cache directory: C:\\Users\\ADMINI~1\\AppData\\Local\\Temp\\video2x\\tmpwtl5o7q9\r\n[+] INFO: Program completed, taking 31801.83733 seconds\r\n\r\nC:\\Program Files\\video2x-master\\bin>\r\n```","reactions":{"url":"https://api.github.com/repos/k4yt3x/video2x/issues/comments/487773318/reactions","total_count":0,"+1":0,"-1":0,"laugh":0,"hooray":0,"confused":0,"heart":0,"rocket":0,"eyes":0},"performed_via_github_app":null,"event":"commented","actor":{"login":"nostalgicc","id":38463032,"node_id":"MDQ6VXNlcjM4NDYzMDMy","avatar_url":"https://avatars.githubusercontent.com/u/38463032?v=4","gravatar_id":"","url":"https://api.github.com/users/nostalgicc","html_url":"https://github.com/nostalgicc","followers_url":"https://api.github.com/users/nostalgicc/followers","following_url":"https://api.github.com/users/nostalgicc/following{/other_user}","gists_url":"https://api.github.com/users/nostalgicc/gists{/gist_id}","starred_url":"https://api.github.com/users/nostalgicc/starred{/owner}{/repo}","subscriptions_url":"https://api.github.com/users/nostalgicc/subscriptions","organizations_url":"https://api.github.com/users/nostalgicc/orgs","repos_url":"https://api.github.com/users/nostalgicc/repos","events_url":"https://api.github.com/users/nostalgicc/events{/privacy}","received_events_url":"https://api.github.com/users/nostalgicc/received_events","type":"User","site_admin":false}},{"url":"https://api.github.com/repos/k4yt3x/video2x/issues/comments/487774364","html_url":"https://github.com/k4yt3x/video2x/issues/86#issuecomment-487774364","issue_url":"https://api.github.com/repos/k4yt3x/video2x/issues/86","id":487774364,"node_id":"MDEyOklzc3VlQ29tbWVudDQ4Nzc3NDM2NA==","user":{"login":"k4yt3x","id":21986859,"node_id":"MDQ6VXNlcjIxOTg2ODU5","avatar_url":"https://avatars.githubusercontent.com/u/21986859?v=4","gravatar_id":"","url":"https://api.github.com/users/k4yt3x","html_url":"https://github.com/k4yt3x","followers_url":"https://api.github.com/users/k4yt3x/followers","following_url":"https://api.github.com/users/k4yt3x/following{/other_user}","gists_url":"https://api.github.com/users/k4yt3x/gists{/gist_id}","starred_url":"https://api.github.com/users/k4yt3x/starred{/owner}{/repo}","subscriptions_url":"https://api.github.com/users/k4yt3x/subscriptions","organizations_url":"https://api.github.com/users/k4yt3x/orgs","repos_url":"https://api.github.com/users/k4yt3x/repos","events_url":"https://api.github.com/users/k4yt3x/events{/privacy}","received_events_url":"https://api.github.com/users/k4yt3x/received_events","type":"User","site_admin":false},"created_at":"2019-04-29T23:08:04Z","updated_at":"2019-04-29T23:08:04Z","author_association":"OWNER","body":"I wonder what's causing the issue","reactions":{"url":"https://api.github.com/repos/k4yt3x/video2x/issues/comments/487774364/reactions","total_count":0,"+1":0,"-1":0,"laugh":0,"hooray":0,"confused":0,"heart":0,"rocket":0,"eyes":0},"performed_via_github_app":null,"event":"commented","actor":{"login":"k4yt3x","id":21986859,"node_id":"MDQ6VXNlcjIxOTg2ODU5","avatar_url":"https://avatars.githubusercontent.com/u/21986859?v=4","gravatar_id":"","url":"https://api.github.com/users/k4yt3x","html_url":"https://github.com/k4yt3x","followers_url":"https://api.github.com/users/k4yt3x/followers","following_url":"https://api.github.com/users/k4yt3x/following{/other_user}","gists_url":"https://api.github.com/users/k4yt3x/gists{/gist_id}","starred_url":"https://api.github.com/users/k4yt3x/starred{/owner}{/repo}","subscriptions_url":"https://api.github.com/users/k4yt3x/subscriptions","organizations_url":"https://api.github.com/users/k4yt3x/orgs","repos_url":"https://api.github.com/users/k4yt3x/repos","events_url":"https://api.github.com/users/k4yt3x/events{/privacy}","received_events_url":"https://api.github.com/users/k4yt3x/received_events","type":"User","site_admin":false}},{"id":2308128965,"node_id":"MDEzOkFzc2lnbmVkRXZlbnQyMzA4MTI4OTY1","url":"https://api.github.com/repos/k4yt3x/video2x/issues/events/2308128965","actor":{"login":"k4yt3x","id":21986859,"node_id":"MDQ6VXNlcjIxOTg2ODU5","avatar_url":"https://avatars.githubusercontent.com/u/21986859?v=4","gravatar_id":"","url":"https://api.github.com/users/k4yt3x","html_url":"https://github.com/k4yt3x","followers_url":"https://api.github.com/users/k4yt3x/followers","following_url":"https://api.github.com/users/k4yt3x/following{/other_user}","gists_url":"https://api.github.com/users/k4yt3x/gists{/gist_id}","starred_url":"https://api.github.com/users/k4yt3x/starred{/owner}{/repo}","subscriptions_url":"https://api.github.com/users/k4yt3x/subscriptions","organizations_url":"https://api.github.com/users/k4yt3x/orgs","repos_url":"https://api.github.com/users/k4yt3x/repos","events_url":"https://api.github.com/users/k4yt3x/events{/privacy}","received_events_url":"https://api.github.com/users/k4yt3x/received_events","type":"User","site_admin":false},"event":"assigned","commit_id":null,"commit_url":null,"created_at":"2019-04-29T23:08:08Z","assignee":{"login":"k4yt3x","id":21986859,"node_id":"MDQ6VXNlcjIxOTg2ODU5","avatar_url":"https://avatars.githubusercontent.com/u/21986859?v=4","gravatar_id":"","url":"https://api.github.com/users/k4yt3x","html_url":"https://github.com/k4yt3x","followers_url":"https://api.github.com/users/k4yt3x/followers","following_url":"https://api.github.com/users/k4yt3x/following{/other_user}","gists_url":"https://api.github.com/users/k4yt3x/gists{/gist_id}","starred_url":"https://api.github.com/users/k4yt3x/starred{/owner}{/repo}","subscriptions_url":"https://api.github.com/users/k4yt3x/subscriptions","organizations_url":"https://api.github.com/users/k4yt3x/orgs","repos_url":"https://api.github.com/users/k4yt3x/repos","events_url":"https://api.github.com/users/k4yt3x/events{/privacy}","received_events_url":"https://api.github.com/users/k4yt3x/received_events","type":"User","site_admin":false},"performed_via_github_app":null},{"id":2308129051,"node_id":"MDEyOkxhYmVsZWRFdmVudDIzMDgxMjkwNTE=","url":"https://api.github.com/repos/k4yt3x/video2x/issues/events/2308129051","actor":{"login":"k4yt3x","id":21986859,"node_id":"MDQ6VXNlcjIxOTg2ODU5","avatar_url":"https://avatars.githubusercontent.com/u/21986859?v=4","gravatar_id":"","url":"https://api.github.com/users/k4yt3x","html_url":"https://github.com/k4yt3x","followers_url":"https://api.github.com/users/k4yt3x/followers","following_url":"https://api.github.com/users/k4yt3x/following{/other_user}","gists_url":"https://api.github.com/users/k4yt3x/gists{/gist_id}","starred_url":"https://api.github.com/users/k4yt3x/starred{/owner}{/repo}","subscriptions_url":"https://api.github.com/users/k4yt3x/subscriptions","organizations_url":"https://api.github.com/users/k4yt3x/orgs","repos_url":"https://api.github.com/users/k4yt3x/repos","events_url":"https://api.github.com/users/k4yt3x/events{/privacy}","received_events_url":"https://api.github.com/users/k4yt3x/received_events","type":"User","site_admin":false},"event":"labeled","commit_id":null,"commit_url":null,"created_at":"2019-04-29T23:08:11Z","label":{"name":"bug","color":"d73a4a"},"performed_via_github_app":null},{"url":"https://api.github.com/repos/k4yt3x/video2x/issues/comments/487774969","html_url":"https://github.com/k4yt3x/video2x/issues/86#issuecomment-487774969","issue_url":"https://api.github.com/repos/k4yt3x/video2x/issues/86","id":487774969,"node_id":"MDEyOklzc3VlQ29tbWVudDQ4Nzc3NDk2OQ==","user":{"login":"k4yt3x","id":21986859,"node_id":"MDQ6VXNlcjIxOTg2ODU5","avatar_url":"https://avatars.githubusercontent.com/u/21986859?v=4","gravatar_id":"","url":"https://api.github.com/users/k4yt3x","html_url":"https://github.com/k4yt3x","followers_url":"https://api.github.com/users/k4yt3x/followers","following_url":"https://api.github.com/users/k4yt3x/following{/other_user}","gists_url":"https://api.github.com/users/k4yt3x/gists{/gist_id}","starred_url":"https://api.github.com/users/k4yt3x/starred{/owner}{/repo}","subscriptions_url":"https://api.github.com/users/k4yt3x/subscriptions","organizations_url":"https://api.github.com/users/k4yt3x/orgs","repos_url":"https://api.github.com/users/k4yt3x/repos","events_url":"https://api.github.com/users/k4yt3x/events{/privacy}","received_events_url":"https://api.github.com/users/k4yt3x/received_events","type":"User","site_admin":false},"created_at":"2019-04-29T23:11:04Z","updated_at":"2019-04-29T23:11:04Z","author_association":"OWNER","body":"Maybe FFmpeg doesn't recognize a certain character in that file name?","reactions":{"url":"https://api.github.com/repos/k4yt3x/video2x/issues/comments/487774969/reactions","total_count":0,"+1":0,"-1":0,"laugh":0,"hooray":0,"confused":0,"heart":0,"rocket":0,"eyes":0},"performed_via_github_app":null,"event":"commented","actor":{"login":"k4yt3x","id":21986859,"node_id":"MDQ6VXNlcjIxOTg2ODU5","avatar_url":"https://avatars.githubusercontent.com/u/21986859?v=4","gravatar_id":"","url":"https://api.github.com/users/k4yt3x","html_url":"https://github.com/k4yt3x","followers_url":"https://api.github.com/users/k4yt3x/followers","following_url":"https://api.github.com/users/k4yt3x/following{/other_user}","gists_url":"https://api.github.com/users/k4yt3x/gists{/gist_id}","starred_url":"https://api.github.com/users/k4yt3x/starred{/owner}{/repo}","subscriptions_url":"https://api.github.com/users/k4yt3x/subscriptions","organizations_url":"https://api.github.com/users/k4yt3x/orgs","repos_url":"https://api.github.com/users/k4yt3x/repos","events_url":"https://api.github.com/users/k4yt3x/events{/privacy}","received_events_url":"https://api.github.com/users/k4yt3x/received_events","type":"User","site_admin":false}},{"url":"https://api.github.com/repos/k4yt3x/video2x/issues/comments/487776942","html_url":"https://github.com/k4yt3x/video2x/issues/86#issuecomment-487776942","issue_url":"https://api.github.com/repos/k4yt3x/video2x/issues/86","id":487776942,"node_id":"MDEyOklzc3VlQ29tbWVudDQ4Nzc3Njk0Mg==","user":{"login":"nostalgicc","id":38463032,"node_id":"MDQ6VXNlcjM4NDYzMDMy","avatar_url":"https://avatars.githubusercontent.com/u/38463032?v=4","gravatar_id":"","url":"https://api.github.com/users/nostalgicc","html_url":"https://github.com/nostalgicc","followers_url":"https://api.github.com/users/nostalgicc/followers","following_url":"https://api.github.com/users/nostalgicc/following{/other_user}","gists_url":"https://api.github.com/users/nostalgicc/gists{/gist_id}","starred_url":"https://api.github.com/users/nostalgicc/starred{/owner}{/repo}","subscriptions_url":"https://api.github.com/users/nostalgicc/subscriptions","organizations_url":"https://api.github.com/users/nostalgicc/orgs","repos_url":"https://api.github.com/users/nostalgicc/repos","events_url":"https://api.github.com/users/nostalgicc/events{/privacy}","received_events_url":"https://api.github.com/users/nostalgicc/received_events","type":"User","site_admin":false},"created_at":"2019-04-29T23:21:18Z","updated_at":"2019-04-29T23:21:39Z","author_association":"NONE","body":"Considering it successfully read the input and extracted all the frames I reckon the file name should be fine. So I then changed the cache directory back to default (null) and output to D:\\test.mp4 which got the second error with the tiny blank file.","reactions":{"url":"https://api.github.com/repos/k4yt3x/video2x/issues/comments/487776942/reactions","total_count":0,"+1":0,"-1":0,"laugh":0,"hooray":0,"confused":0,"heart":0,"rocket":0,"eyes":0},"performed_via_github_app":null,"event":"commented","actor":{"login":"nostalgicc","id":38463032,"node_id":"MDQ6VXNlcjM4NDYzMDMy","avatar_url":"https://avatars.githubusercontent.com/u/38463032?v=4","gravatar_id":"","url":"https://api.github.com/users/nostalgicc","html_url":"https://github.com/nostalgicc","followers_url":"https://api.github.com/users/nostalgicc/followers","following_url":"https://api.github.com/users/nostalgicc/following{/other_user}","gists_url":"https://api.github.com/users/nostalgicc/gists{/gist_id}","starred_url":"https://api.github.com/users/nostalgicc/starred{/owner}{/repo}","subscriptions_url":"https://api.github.com/users/nostalgicc/subscriptions","organizations_url":"https://api.github.com/users/nostalgicc/orgs","repos_url":"https://api.github.com/users/nostalgicc/repos","events_url":"https://api.github.com/users/nostalgicc/events{/privacy}","received_events_url":"https://api.github.com/users/nostalgicc/received_events","type":"User","site_admin":false}},{"url":"https://api.github.com/repos/k4yt3x/video2x/issues/comments/487812923","html_url":"https://github.com/k4yt3x/video2x/issues/86#issuecomment-487812923","issue_url":"https://api.github.com/repos/k4yt3x/video2x/issues/86","id":487812923,"node_id":"MDEyOklzc3VlQ29tbWVudDQ4NzgxMjkyMw==","user":{"login":"k4yt3x","id":21986859,"node_id":"MDQ6VXNlcjIxOTg2ODU5","avatar_url":"https://avatars.githubusercontent.com/u/21986859?v=4","gravatar_id":"","url":"https://api.github.com/users/k4yt3x","html_url":"https://github.com/k4yt3x","followers_url":"https://api.github.com/users/k4yt3x/followers","following_url":"https://api.github.com/users/k4yt3x/following{/other_user}","gists_url":"https://api.github.com/users/k4yt3x/gists{/gist_id}","starred_url":"https://api.github.com/users/k4yt3x/starred{/owner}{/repo}","subscriptions_url":"https://api.github.com/users/k4yt3x/subscriptions","organizations_url":"https://api.github.com/users/k4yt3x/orgs","repos_url":"https://api.github.com/users/k4yt3x/repos","events_url":"https://api.github.com/users/k4yt3x/events{/privacy}","received_events_url":"https://api.github.com/users/k4yt3x/received_events","type":"User","site_admin":false},"created_at":"2019-04-30T03:41:23Z","updated_at":"2019-04-30T03:41:23Z","author_association":"OWNER","body":"Hang on, you're using multiple threads. Try using only 1 thread and see if that solves the bug, cuz it looks like that one of the threads failed.","reactions":{"url":"https://api.github.com/repos/k4yt3x/video2x/issues/comments/487812923/reactions","total_count":0,"+1":0,"-1":0,"laugh":0,"hooray":0,"confused":0,"heart":0,"rocket":0,"eyes":0},"performed_via_github_app":null,"event":"commented","actor":{"login":"k4yt3x","id":21986859,"node_id":"MDQ6VXNlcjIxOTg2ODU5","avatar_url":"https://avatars.githubusercontent.com/u/21986859?v=4","gravatar_id":"","url":"https://api.github.com/users/k4yt3x","html_url":"https://github.com/k4yt3x","followers_url":"https://api.github.com/users/k4yt3x/followers","following_url":"https://api.github.com/users/k4yt3x/following{/other_user}","gists_url":"https://api.github.com/users/k4yt3x/gists{/gist_id}","starred_url":"https://api.github.com/users/k4yt3x/starred{/owner}{/repo}","subscriptions_url":"https://api.github.com/users/k4yt3x/subscriptions","organizations_url":"https://api.github.com/users/k4yt3x/orgs","repos_url":"https://api.github.com/users/k4yt3x/repos","events_url":"https://api.github.com/users/k4yt3x/events{/privacy}","received_events_url":"https://api.github.com/users/k4yt3x/received_events","type":"User","site_admin":false}},{"url":"https://api.github.com/repos/k4yt3x/video2x/issues/comments/487821095","html_url":"https://github.com/k4yt3x/video2x/issues/86#issuecomment-487821095","issue_url":"https://api.github.com/repos/k4yt3x/video2x/issues/86","id":487821095,"node_id":"MDEyOklzc3VlQ29tbWVudDQ4NzgyMTA5NQ==","user":{"login":"nostalgicc","id":38463032,"node_id":"MDQ6VXNlcjM4NDYzMDMy","avatar_url":"https://avatars.githubusercontent.com/u/38463032?v=4","gravatar_id":"","url":"https://api.github.com/users/nostalgicc","html_url":"https://github.com/nostalgicc","followers_url":"https://api.github.com/users/nostalgicc/followers","following_url":"https://api.github.com/users/nostalgicc/following{/other_user}","gists_url":"https://api.github.com/users/nostalgicc/gists{/gist_id}","starred_url":"https://api.github.com/users/nostalgicc/starred{/owner}{/repo}","subscriptions_url":"https://api.github.com/users/nostalgicc/subscriptions","organizations_url":"https://api.github.com/users/nostalgicc/orgs","repos_url":"https://api.github.com/users/nostalgicc/repos","events_url":"https://api.github.com/users/nostalgicc/events{/privacy}","received_events_url":"https://api.github.com/users/nostalgicc/received_events","type":"User","site_admin":false},"created_at":"2019-04-30T04:56:22Z","updated_at":"2019-04-30T04:56:22Z","author_association":"NONE","body":"sorry I couldn't find how to set the number of threads, is it something I put into the command?","reactions":{"url":"https://api.github.com/repos/k4yt3x/video2x/issues/comments/487821095/reactions","total_count":0,"+1":0,"-1":0,"laugh":0,"hooray":0,"confused":0,"heart":0,"rocket":0,"eyes":0},"performed_via_github_app":null,"event":"commented","actor":{"login":"nostalgicc","id":38463032,"node_id":"MDQ6VXNlcjM4NDYzMDMy","avatar_url":"https://avatars.githubusercontent.com/u/38463032?v=4","gravatar_id":"","url":"https://api.github.com/users/nostalgicc","html_url":"https://github.com/nostalgicc","followers_url":"https://api.github.com/users/nostalgicc/followers","following_url":"https://api.github.com/users/nostalgicc/following{/other_user}","gists_url":"https://api.github.com/users/nostalgicc/gists{/gist_id}","starred_url":"https://api.github.com/users/nostalgicc/starred{/owner}{/repo}","subscriptions_url":"https://api.github.com/users/nostalgicc/subscriptions","organizations_url":"https://api.github.com/users/nostalgicc/orgs","repos_url":"https://api.github.com/users/nostalgicc/repos","events_url":"https://api.github.com/users/nostalgicc/events{/privacy}","received_events_url":"https://api.github.com/users/nostalgicc/received_events","type":"User","site_admin":false}},{"url":"https://api.github.com/repos/k4yt3x/video2x/issues/comments/488207271","html_url":"https://github.com/k4yt3x/video2x/issues/86#issuecomment-488207271","issue_url":"https://api.github.com/repos/k4yt3x/video2x/issues/86","id":488207271,"node_id":"MDEyOklzc3VlQ29tbWVudDQ4ODIwNzI3MQ==","user":{"login":"nostalgicc","id":38463032,"node_id":"MDQ6VXNlcjM4NDYzMDMy","avatar_url":"https://avatars.githubusercontent.com/u/38463032?v=4","gravatar_id":"","url":"https://api.github.com/users/nostalgicc","html_url":"https://github.com/nostalgicc","followers_url":"https://api.github.com/users/nostalgicc/followers","following_url":"https://api.github.com/users/nostalgicc/following{/other_user}","gists_url":"https://api.github.com/users/nostalgicc/gists{/gist_id}","starred_url":"https://api.github.com/users/nostalgicc/starred{/owner}{/repo}","subscriptions_url":"https://api.github.com/users/nostalgicc/subscriptions","organizations_url":"https://api.github.com/users/nostalgicc/orgs","repos_url":"https://api.github.com/users/nostalgicc/repos","events_url":"https://api.github.com/users/nostalgicc/events{/privacy}","received_events_url":"https://api.github.com/users/nostalgicc/received_events","type":"User","site_admin":false},"created_at":"2019-05-01T04:16:51Z","updated_at":"2019-05-01T05:37:24Z","author_association":"NONE","body":"changed thread to 1, produced a decent sized mp4 file, however still cannot be played. Windows player black screen, third party video players show glitchy grey screen. Corrupt file.\r\n\r\n```\r\nC:\\Program Files\\video2x-master\\bin>python video2x.py -m gpu -r 2 -t 1 -i E:\\[POPGO][FREEWIND][Macross_Do_you_remember_love][Full_HD-BDRIP][AVC_DTS].mpeg -o D:\\test.mp4\r\n__      __  _       _                  ___   __   __\r\n\\ \\    / / (_)     | |                |__ \\  \\ \\ / /\r\n \\ \\  / /   _    __| |   ___    ___      ) |  \\ V /\r\n  \\ \\/ /   | |  / _` |  / _ \\  / _ \\    / /    > <\r\n   \\  /    | | | (_| | |  __/ | (_) |  / /_   / . \\\r\n    \\/     |_|  \\__,_|  \\___|  \\___/  |____| /_/ \\_\\\r\n\r\n               Video2X Video Enlarger\r\n\r\n                   Version 2.7.1\r\n\r\n[!] WARNING: Specified cache folder/directory C:\\Users\\ADMINI~1\\AppData\\Local\\Temp\\video2x does not exist\r\n[?] USER: Create folder/directory? [Y/n]: Y\r\n[+] INFO: C:\\Users\\ADMINI~1\\AppData\\Local\\Temp\\video2x created\r\n[+] INFO: Upscaling single video file: E:\\[POPGO][FREEWIND][Macross_Do_you_remember_love][Full_HD-BDRIP][AVC_DTS].mpeg\r\n2019-05-01 00:22:35.547620 [+] INFO: Extracted frames are being saved to: C:\\Users\\ADMINI~1\\AppData\\Local\\Temp\\video2x\\tmpty32marj\r\n2019-05-01 00:22:35.548617 [+] INFO: Upscaled frames are being saved to: C:\\Users\\ADMINI~1\\AppData\\Local\\Temp\\video2x\\tmp_ky9qj72\r\n2019-05-01 00:22:35.548617 [+] INFO: Executing: ['C:\\\\Users\\\\Administrator\\\\AppData\\\\Local\\\\video2x\\\\ffmpeg-latest-win64-static\\\\bin\\\\ffmpeg.exe', '-i', 'E:\\\\[POPGO][FREEWIND][Macross_Do_you_remember_love][Full_HD-BDRIP][AVC_DTS].mpeg', 'C:\\\\Users\\\\ADMINI~1\\\\AppData\\\\Local\\\\Temp\\\\video2x\\\\tmpty32marj\\\\extracted_%0d.png', '-hwaccel', 'auto', '-y']\r\nffmpeg version N-93686-g8019395889 Copyright (c) 2000-2019 the FFmpeg developers\r\n  built with gcc 8.3.1 (GCC) 20190414\r\n  configuration: --enable-gpl --enable-version3 --enable-sdl2 --enable-fontconfig --enable-gnutls --enable-iconv --enable-libass --enable-libdav1d --enable-libbluray --enable-libfreetype --enable-libmp3lame --enable-libopencore-amrnb --enable-libopencore-amrwb --enable-libopenjpeg --enable-libopus --enable-libshine --enable-libsnappy --enable-libsoxr --enable-libtheora --enable-libtwolame --enable-libvpx --enable-libwavpack --enable-libwebp --enable-libx264 --enable-libx265 --enable-libxml2 --enable-libzimg --enable-lzma --enable-zlib --enable-gmp --enable-libvidstab --enable-libvorbis --enable-libvo-amrwbenc --enable-libmysofa --enable-libspeex --enable-libxvid --enable-libaom --enable-libmfx --enable-amf --enable-ffnvcodec --enable-cuvid --enable-d3d11va --enable-nvenc --enable-nvdec --enable-dxva2 --enable-avisynth --enable-libopenmpt\r\n  libavutil      56. 26.100 / 56. 26.100\r\n  libavcodec     58. 52.100 / 58. 52.100\r\n  libavformat    58. 27.103 / 58. 27.103\r\n  libavdevice    58.  7.100 / 58.  7.100\r\n  libavfilter     7. 50.100 /  7. 50.100\r\n  libswscale      5.  4.100 /  5.  4.100\r\n  libswresample   3.  4.100 /  3.  4.100\r\n  libpostproc    55.  4.100 / 55.  4.100\r\nTrailing options were found on the commandline.\r\nInput #0, mpeg, from 'E:\\[POPGO][FREEWIND][Macross_Do_you_remember_love][Full_HD-BDRIP][AVC_DTS].mpeg':\r\n  Duration: 00:06:38.89, start: 0.460233, bitrate: 25334 kb/s\r\n    Stream #0:0[0x1e0]: Video: mpeg2video (High), yuv420p(tv, unknown/bt709/unknown, progressive), 1920x1080 [SAR 1:1 DAR 16:9], 24858 kb/s, 23.98 fps, 23.98 tbr, 90k tbn, 47.95 tbc\r\n    Stream #0:1[0x1c0]: Audio: mp2, 44100 Hz, stereo, fltp, 384 kb/s\r\nStream mapping:\r\n  Stream #0:0 -> #0:0 (mpeg2video (native) -> png (native))\r\nPress [q] to stop, [?] for help\r\nOutput #0, image2, to 'C:\\Users\\ADMINI~1\\AppData\\Local\\Temp\\video2x\\tmpty32marj\\extracted_%0d.png':\r\n  Metadata:\r\n    encoder         : Lavf58.27.103\r\n    Stream #0:0: Video: png, rgb24, 1920x1080 [SAR 1:1 DAR 16:9], q=2-31, 200 kb/s, 23.98 fps, 23.98 tbn, 23.98 tbc\r\n    Metadata:\r\n      encoder         : Lavc58.52.100 png\r\nframe= 9562 fps= 28 q=-0.0 Lsize=N/A time=00:06:38.81 bitrate=N/A speed=1.16x\r\nvideo:21710872kB audio:0kB subtitle:0kB other streams:0kB global headers:0kB muxing overhead: unknown\r\n[+] INFO: Reading video information\r\n2019-05-01 00:28:19.771531 [+] INFO: Executing: C:\\Users\\Administrator\\AppData\\Local\\video2x\\ffmpeg-latest-win64-static\\bin\\ffprobe.exe -v quiet -print_format json -show_format -show_streams -i E:\\[POPGO][FREEWIND][Macross_Do_you_remember_love][Full_HD-BDRIP][AVC_DTS].mpeg\r\n[+] INFO: Framerate: 23.976023976023978\r\n[+] INFO: Starting to upscale extracted images\r\n2019-05-01 00:28:27.692342 [+] INFO: Starting upscaled image cleaner\r\n2019-05-01 00:28:27.693339 [+] INFO: [upscaler] Thread 0 started\r\n2019-05-01 00:28:27.693339 [+] INFO: Executing: ['C:\\\\Users\\\\Administrator\\\\AppData\\\\Local\\\\video2x\\\\waifu2x-caffe\\\\waifu2x-caffe-cui.exe', '--output_extention', 'png', '--mode', 'noise_scale', '--scale_ratio', '2.0', '--noise_level', '3', '--process', 'gpu', '--crop_size', '128', '--output_quality', '-1', '--output_depth', '8', '--batch_size', '1', '--gpu', '0', '--tta', '0', '--input_path', 'C:\\\\Users\\\\ADMINI~1\\\\AppData\\\\Local\\\\Temp\\\\video2x\\\\tmpty32marj\\\\0', '--output_path', 'C:\\\\Users\\\\ADMINI~1\\\\AppData\\\\Local\\\\Temp\\\\video2x\\\\tmp_ky9qj72']\r\nUpscaling Progress: 100%|#######################################################9| 9561/9562 [9:20:33<00:03,  3.62s/it] 変換に成功しました\r\n2019-05-01 09:49:04.414325 [+] INFO: [upscaler] Thread 0 exiting\r\n2019-05-01 09:49:04.417344 [+] INFO: Killing upscaled image cleaner\r\n\r\n[+] INFO: Upscaling completed\r\n[+] INFO: Converting extracted frames into video\r\n2019-05-01 09:49:04.640720 [+] INFO: Executing: ['C:\\\\Users\\\\Administrator\\\\AppData\\\\Local\\\\video2x\\\\ffmpeg-latest-win64-static\\\\bin\\\\ffmpeg.exe', '-r', '23.976023976023978', '-s', '3840x2160', '-i', 'C:\\\\Users\\\\ADMINI~1\\\\AppData\\\\Local\\\\Temp\\\\video2x\\\\tmp_ky9qj72\\\\extracted_%d.png', 'C:\\\\Users\\\\ADMINI~1\\\\AppData\\\\Local\\\\Temp\\\\video2x\\\\tmp_ky9qj72\\\\no_audio.mp4', '-f', 'image2', '-vcodec', 'libx264', '-crf', '17', '-pix_fmt', 'yuv420p', '-hwaccel', 'auto', '-y']\r\nffmpeg version N-93686-g8019395889 Copyright (c) 2000-2019 the FFmpeg developers\r\n  built with gcc 8.3.1 (GCC) 20190414\r\n  configuration: --enable-gpl --enable-version3 --enable-sdl2 --enable-fontconfig --enable-gnutls --enable-iconv --enable-libass --enable-libdav1d --enable-libbluray --enable-libfreetype --enable-libmp3lame --enable-libopencore-amrnb --enable-libopencore-amrwb --enable-libopenjpeg --enable-libopus --enable-libshine --enable-libsnappy --enable-libsoxr --enable-libtheora --enable-libtwolame --enable-libvpx --enable-libwavpack --enable-libwebp --enable-libx264 --enable-libx265 --enable-libxml2 --enable-libzimg --enable-lzma --enable-zlib --enable-gmp --enable-libvidstab --enable-libvorbis --enable-libvo-amrwbenc --enable-libmysofa --enable-libspeex --enable-libxvid --enable-libaom --enable-libmfx --enable-amf --enable-ffnvcodec --enable-cuvid --enable-d3d11va --enable-nvenc --enable-nvdec --enable-dxva2 --enable-avisynth --enable-libopenmpt\r\n  libavutil      56. 26.100 / 56. 26.100\r\n  libavcodec     58. 52.100 / 58. 52.100\r\n  libavformat    58. 27.103 / 58. 27.103\r\n  libavdevice    58.  7.100 / 58.  7.100\r\n  libavfilter     7. 50.100 /  7. 50.100\r\n  libswscale      5.  4.100 /  5.  4.100\r\n  libswresample   3.  4.100 /  3.  4.100\r\n  libpostproc    55.  4.100 / 55.  4.100\r\nTrailing options were found on the commandline.\r\nInput #0, image2, from 'C:\\Users\\ADMINI~1\\AppData\\Local\\Temp\\video2x\\tmp_ky9qj72\\extracted_%d.png':\r\n  Duration: 00:06:22.48, start: 0.000000, bitrate: N/A\r\n    Stream #0:0: Video: png, rgb24(pc), 3840x2160, 25 tbr, 25 tbn, 25 tbc\r\nStream mapping:\r\n  Stream #0:0 -> #0:0 (png (native) -> h264 (libx264))\r\nPress [q] to stop, [?] for help\r\n[libx264 @ 000002572d0bee40] using cpu capabilities: MMX2 SSE2Fast SSSE3 SSE4.2 AVX FMA3 BMI2 AVX2\r\n[libx264 @ 000002572d0bee40] profile High 4:4:4 Predictive, level 5.1, 4:4:4, 8-bit\r\n[libx264 @ 000002572d0bee40] 264 - core 157 r2970 5493be8 - H.264/MPEG-4 AVC codec - Copyleft 2003-2019 - http://www.videolan.org/x264.html - options: cabac=1 ref=3 deblock=1:0:0 analyse=0x3:0x113 me=hex subme=7 psy=1 psy_rd=1.00:0.00 mixed_ref=1 me_range=16 chroma_me=1 trellis=1 8x8dct=1 cqm=0 deadzone=21,11 fast_pskip=1 chroma_qp_offset=4 threads=12 lookahead_threads=2 sliced_threads=0 nr=0 decimate=1 interlaced=0 bluray_compat=0 constrained_intra=0 bframes=3 b_pyramid=2 b_adapt=1 b_bias=0 direct=1 weightb=1 open_gop=0 weightp=2 keyint=250 keyint_min=23 scenecut=40 intra_refresh=0 rc_lookahead=40 rc=crf mbtree=1 crf=23.0 qcomp=0.60 qpmin=0 qpmax=69 qpstep=4 ip_ratio=1.40 aq=1:1.00\r\nOutput #0, mp4, to 'C:\\Users\\ADMINI~1\\AppData\\Local\\Temp\\video2x\\tmp_ky9qj72\\no_audio.mp4':\r\n  Metadata:\r\n    encoder         : Lavf58.27.103\r\n    Stream #0:0: Video: h264 (libx264) (avc1 / 0x31637661), yuv444p, 3840x2160, q=-1--1, 23.98 fps, 24k tbn, 23.98 tbc\r\n    Metadata:\r\n      encoder         : Lavc58.52.100 libx264\r\n    Side data:\r\n      cpb: bitrate max/min/avg: 0/0/0 buffer size: 0 vbv_delay: -1\r\nframe= 9562 fps= 12 q=-1.0 Lsize=  577096kB time=00:06:38.69 bitrate=11857.8kbits/s speed=0.517x\r\nvideo:576986kB audio:0kB subtitle:0kB other streams:0kB global headers:0kB muxing overhead: 0.019039%\r\n[libx264 @ 000002572d0bee40] frame I:317   Avg QP:19.06  size:164288\r\n[libx264 @ 000002572d0bee40] frame P:3547  Avg QP:22.22  size: 93850\r\n[libx264 @ 000002572d0bee40] frame B:5698  Avg QP:23.33  size: 36130\r\n[libx264 @ 000002572d0bee40] consecutive B-frames: 15.4% 12.4%  9.7% 62.6%\r\n[libx264 @ 000002572d0bee40] mb I  I16..4: 22.7% 73.1%  4.2%\r\n[libx264 @ 000002572d0bee40] mb P  I16..4: 17.1% 28.4%  1.0%  P16..4: 21.6%  5.4%  1.4%  0.0%  0.0%    skip:25.1%\r\n[libx264 @ 000002572d0bee40] mb B  I16..4:  1.9%  2.3%  0.1%  B16..8: 30.7%  2.3%  0.2%  direct: 1.0%  skip:61.3%  L0:45.5% L1:52.1% BI: 2.4%\r\n[libx264 @ 000002572d0bee40] 8x8 transform intra:61.9% inter:92.6%\r\n[libx264 @ 000002572d0bee40] coded y,u,v intra: 22.9% 11.3% 9.7% inter: 7.0% 4.2% 3.5%\r\n[libx264 @ 000002572d0bee40] i16 v,h,dc,p: 38% 27%  7% 28%\r\n[libx264 @ 000002572d0bee40] i8 v,h,dc,ddl,ddr,vr,hd,vl,hu: 25% 18% 29%  4%  5%  5%  6%  4%  4%\r\n[libx264 @ 000002572d0bee40] i4 v,h,dc,ddl,ddr,vr,hd,vl,hu: 24% 20% 14%  4% 11%  9%  9%  5%  3%\r\n[libx264 @ 000002572d0bee40] Weighted P-Frames: Y:5.7% UV:3.9%\r\n[libx264 @ 000002572d0bee40] ref P L0: 56.0%  9.4% 22.4% 11.7%  0.5%\r\n[libx264 @ 000002572d0bee40] ref B L0: 86.6% 10.2%  3.2%\r\n[libx264 @ 000002572d0bee40] ref B L1: 96.6%  3.4%\r\n[libx264 @ 000002572d0bee40] kb/s:11851.77\r\n[+] INFO: Conversion completed\r\n[+] INFO: Migrating audio tracks and subtitles to upscaled video\r\n2019-05-01 10:01:56.294080 [+] INFO: Executing: ['C:\\\\Users\\\\Administrator\\\\AppData\\\\Local\\\\video2x\\\\ffmpeg-latest-win64-static\\\\bin\\\\ffmpeg.exe', '-i', 'C:\\\\Users\\\\ADMINI~1\\\\AppData\\\\Local\\\\Temp\\\\video2x\\\\tmp_ky9qj72\\\\no_audio.mp4', '-i', 'E:\\\\[POPGO][FREEWIND][Macross_Do_you_remember_love][Full_HD-BDRIP][AVC_DTS].mpeg', 'D:\\\\test.mp4', '-map', '-1:v?', '-c', 'copy', '-hwaccel', 'auto', '-y']\r\nffmpeg version N-93686-g8019395889 Copyright (c) 2000-2019 the FFmpeg developers\r\n  built with gcc 8.3.1 (GCC) 20190414\r\n  configuration: --enable-gpl --enable-version3 --enable-sdl2 --enable-fontconfig --enable-gnutls --enable-iconv --enable-libass --enable-libdav1d --enable-libbluray --enable-libfreetype --enable-libmp3lame --enable-libopencore-amrnb --enable-libopencore-amrwb --enable-libopenjpeg --enable-libopus --enable-libshine --enable-libsnappy --enable-libsoxr --enable-libtheora --enable-libtwolame --enable-libvpx --enable-libwavpack --enable-libwebp --enable-libx264 --enable-libx265 --enable-libxml2 --enable-libzimg --enable-lzma --enable-zlib --enable-gmp --enable-libvidstab --enable-libvorbis --enable-libvo-amrwbenc --enable-libmysofa --enable-libspeex --enable-libxvid --enable-libaom --enable-libmfx --enable-amf --enable-ffnvcodec --enable-cuvid --enable-d3d11va --enable-nvenc --enable-nvdec --enable-dxva2 --enable-avisynth --enable-libopenmpt\r\n  libavutil      56. 26.100 / 56. 26.100\r\n  libavcodec     58. 52.100 / 58. 52.100\r\n  libavformat    58. 27.103 / 58. 27.103\r\n  libavdevice    58.  7.100 / 58.  7.100\r\n  libavfilter     7. 50.100 /  7. 50.100\r\n  libswscale      5.  4.100 /  5.  4.100\r\n  libswresample   3.  4.100 /  3.  4.100\r\n  libpostproc    55.  4.100 / 55.  4.100\r\nTrailing options were found on the commandline.\r\nInput #0, mov,mp4,m4a,3gp,3g2,mj2, from 'C:\\Users\\ADMINI~1\\AppData\\Local\\Temp\\video2x\\tmp_ky9qj72\\no_audio.mp4':\r\n  Metadata:\r\n    major_brand     : isom\r\n    minor_version   : 512\r\n    compatible_brands: isomiso2avc1mp41\r\n    encoder         : Lavf58.27.103\r\n  Duration: 00:06:38.82, start: 0.000000, bitrate: 11854 kb/s\r\n    Stream #0:0(und): Video: h264 (High 4:4:4 Predictive) (avc1 / 0x31637661), yuv444p, 3840x2160, 11851 kb/s, 23.98 fps, 23.98 tbr, 24k tbn, 47.95 tbc (default)\r\n    Metadata:\r\n      handler_name    : VideoHandler\r\nInput #1, mpeg, from 'E:\\[POPGO][FREEWIND][Macross_Do_you_remember_love][Full_HD-BDRIP][AVC_DTS].mpeg':\r\n  Duration: 00:06:38.89, start: 0.460233, bitrate: 25334 kb/s\r\n    Stream #1:0[0x1e0]: Video: mpeg2video (High), yuv420p(tv, unknown/bt709/unknown, progressive), 1920x1080 [SAR 1:1 DAR 16:9], 24858 kb/s, 23.98 fps, 23.98 tbr, 90k tbn, 47.95 tbc\r\n    Stream #1:1[0x1c0]: Audio: mp2, 44100 Hz, stereo, fltp, 384 kb/s\r\nStream mapping:\r\n  Stream #0:0 -> #0:0 (h264 (native) -> h264 (libx264))\r\n  Stream #1:1 -> #0:1 (mp2 (native) -> aac (native))\r\nPress [q] to stop, [?] for help\r\n[libx264 @ 00000142ff6712c0] using cpu capabilities: MMX2 SSE2Fast SSSE3 SSE4.2 AVX FMA3 BMI2 AVX2\r\n[libx264 @ 00000142ff6712c0] profile High 4:4:4 Predictive, level 5.1, 4:4:4, 8-bit\r\n[libx264 @ 00000142ff6712c0] 264 - core 157 r2970 5493be8 - H.264/MPEG-4 AVC codec - Copyleft 2003-2019 - http://www.videolan.org/x264.html - options: cabac=1 ref=3 deblock=1:0:0 analyse=0x3:0x113 me=hex subme=7 psy=1 psy_rd=1.00:0.00 mixed_ref=1 me_range=16 chroma_me=1 trellis=1 8x8dct=1 cqm=0 deadzone=21,11 fast_pskip=1 chroma_qp_offset=4 threads=12 lookahead_threads=2 sliced_threads=0 nr=0 decimate=1 interlaced=0 bluray_compat=0 constrained_intra=0 bframes=3 b_pyramid=2 b_adapt=1 b_bias=0 direct=1 weightb=1 open_gop=0 weightp=2 keyint=250 keyint_min=23 scenecut=40 intra_refresh=0 rc_lookahead=40 rc=crf mbtree=1 crf=23.0 qcomp=0.60 qpmin=0 qpmax=69 qpstep=4 ip_ratio=1.40 aq=1:1.00\r\nOutput #0, mp4, to 'D:\\test.mp4':\r\n  Metadata:\r\n    major_brand     : isom\r\n    minor_version   : 512\r\n    compatible_brands: isomiso2avc1mp41\r\n    encoder         : Lavf58.27.103\r\n    Stream #0:0(und): Video: h264 (libx264) (avc1 / 0x31637661), yuv444p(progressive), 3840x2160, q=-1--1, 23.98 fps, 24k tbn, 23.98 tbc (default)\r\n    Metadata:\r\n      handler_name    : VideoHandler\r\n      encoder         : Lavc58.52.100 libx264\r\n    Side data:\r\n      cpb: bitrate max/min/avg: 0/0/0 buffer size: 0 vbv_delay: -1\r\n    Stream #0:1: Audio: aac (LC) (mp4a / 0x6134706D), 44100 Hz, stereo, fltp, 128 kb/s\r\n    Metadata:\r\n      encoder         : Lavc58.52.100 aac\r\nframe= 9562 fps= 17 q=-1.0 Lsize=  573486kB time=00:06:38.89 bitrate=11777.5kbits/s speed=0.697x\r\nvideo:573094kB audio:102kB subtitle:0kB other streams:0kB global headers:0kB muxing overhead: 0.050671%\r\n[libx264 @ 00000142ff6712c0] frame I:311   Avg QP:18.10  size:169883\r\n[libx264 @ 00000142ff6712c0] frame P:3915  Avg QP:21.23  size: 92845\r\n[libx264 @ 00000142ff6712c0] frame B:5336  Avg QP:23.01  size: 31957\r\n[libx264 @ 00000142ff6712c0] consecutive B-frames: 15.6% 27.3%  8.3% 48.8%\r\n[libx264 @ 00000142ff6712c0] mb I  I16..4: 21.9% 74.8%  3.3%\r\n[libx264 @ 00000142ff6712c0] mb P  I16..4: 15.7% 27.0%  0.7%  P16..4: 23.8%  5.2%  1.3%  0.0%  0.0%    skip:26.4%\r\n[libx264 @ 00000142ff6712c0] mb B  I16..4:  1.6%  2.4%  0.1%  B16..8: 29.6%  2.0%  0.2%  direct: 0.9%  skip:63.3%  L0:45.4% L1:52.7% BI: 1.9%\r\n[libx264 @ 00000142ff6712c0] 8x8 transform intra:63.6% inter:92.7%\r\n[libx264 @ 00000142ff6712c0] coded y,u,v intra: 22.6% 12.0% 10.4% inter: 5.7% 3.9% 3.3%\r\n[libx264 @ 00000142ff6712c0] i16 v,h,dc,p: 40% 27%  8% 24%\r\n[libx264 @ 00000142ff6712c0] i8 v,h,dc,ddl,ddr,vr,hd,vl,hu: 26% 19% 28%  4%  5%  5%  5%  4%  3%\r\n[libx264 @ 00000142ff6712c0] i4 v,h,dc,ddl,ddr,vr,hd,vl,hu: 24% 20% 13%  4% 12%  9%  9%  5%  3%\r\n[libx264 @ 00000142ff6712c0] Weighted P-Frames: Y:5.5% UV:3.9%\r\n[libx264 @ 00000142ff6712c0] ref P L0: 59.7%  9.0% 20.4% 10.5%  0.4%\r\n[libx264 @ 00000142ff6712c0] ref B L0: 86.2% 11.1%  2.7%\r\n[libx264 @ 00000142ff6712c0] ref B L1: 97.5%  2.5%\r\n[libx264 @ 00000142ff6712c0] kb/s:11771.83\r\n[aac @ 00000142ff36a840] Qavg: 65536.000\r\nCleaning up cache directory: C:\\Users\\ADMINI~1\\AppData\\Local\\Temp\\video2x\\tmpty32marj\r\nCleaning up cache directory: C:\\Users\\ADMINI~1\\AppData\\Local\\Temp\\video2x\\tmp_ky9qj72\r\n[+] INFO: Program completed, taking 35335.77442 seconds\r\n\r\nC:\\Program Files\\video2x-master\\bin>\r\n```","reactions":{"url":"https://api.github.com/repos/k4yt3x/video2x/issues/comments/488207271/reactions","total_count":0,"+1":0,"-1":0,"laugh":0,"hooray":0,"confused":0,"heart":0,"rocket":0,"eyes":0},"performed_via_github_app":null,"event":"commented","actor":{"login":"nostalgicc","id":38463032,"node_id":"MDQ6VXNlcjM4NDYzMDMy","avatar_url":"https://avatars.githubusercontent.com/u/38463032?v=4","gravatar_id":"","url":"https://api.github.com/users/nostalgicc","html_url":"https://github.com/nostalgicc","followers_url":"https://api.github.com/users/nostalgicc/followers","following_url":"https://api.github.com/users/nostalgicc/following{/other_user}","gists_url":"https://api.github.com/users/nostalgicc/gists{/gist_id}","starred_url":"https://api.github.com/users/nostalgicc/starred{/owner}{/repo}","subscriptions_url":"https://api.github.com/users/nostalgicc/subscriptions","organizations_url":"https://api.github.com/users/nostalgicc/orgs","repos_url":"https://api.github.com/users/nostalgicc/repos","events_url":"https://api.github.com/users/nostalgicc/events{/privacy}","received_events_url":"https://api.github.com/users/nostalgicc/received_events","type":"User","site_admin":false}},{"url":"https://api.github.com/repos/k4yt3x/video2x/issues/comments/488214707","html_url":"https://github.com/k4yt3x/video2x/issues/86#issuecomment-488214707","issue_url":"https://api.github.com/repos/k4yt3x/video2x/issues/86","id":488214707,"node_id":"MDEyOklzc3VlQ29tbWVudDQ4ODIxNDcwNw==","user":{"login":"k4yt3x","id":21986859,"node_id":"MDQ6VXNlcjIxOTg2ODU5","avatar_url":"https://avatars.githubusercontent.com/u/21986859?v=4","gravatar_id":"","url":"https://api.github.com/users/k4yt3x","html_url":"https://github.com/k4yt3x","followers_url":"https://api.github.com/users/k4yt3x/followers","following_url":"https://api.github.com/users/k4yt3x/following{/other_user}","gists_url":"https://api.github.com/users/k4yt3x/gists{/gist_id}","starred_url":"https://api.github.com/users/k4yt3x/starred{/owner}{/repo}","subscriptions_url":"https://api.github.com/users/k4yt3x/subscriptions","organizations_url":"https://api.github.com/users/k4yt3x/orgs","repos_url":"https://api.github.com/users/k4yt3x/repos","events_url":"https://api.github.com/users/k4yt3x/events{/privacy}","received_events_url":"https://api.github.com/users/k4yt3x/received_events","type":"User","site_admin":false},"created_at":"2019-05-01T05:38:28Z","updated_at":"2019-05-01T05:38:28Z","author_association":"OWNER","body":"If you follow this solution, does it solve the problem?\r\nhttps://github.com/k4yt3x/video2x/issues/77#issuecomment-485223710","reactions":{"url":"https://api.github.com/repos/k4yt3x/video2x/issues/comments/488214707/reactions","total_count":0,"+1":0,"-1":0,"laugh":0,"hooray":0,"confused":0,"heart":0,"rocket":0,"eyes":0},"performed_via_github_app":null,"event":"commented","actor":{"login":"k4yt3x","id":21986859,"node_id":"MDQ6VXNlcjIxOTg2ODU5","avatar_url":"https://avatars.githubusercontent.com/u/21986859?v=4","gravatar_id":"","url":"https://api.github.com/users/k4yt3x","html_url":"https://github.com/k4yt3x","followers_url":"https://api.github.com/users/k4yt3x/followers","following_url":"https://api.github.com/users/k4yt3x/following{/other_user}","gists_url":"https://api.github.com/users/k4yt3x/gists{/gist_id}","starred_url":"https://api.github.com/users/k4yt3x/starred{/owner}{/repo}","subscriptions_url":"https://api.github.com/users/k4yt3x/subscriptions","organizations_url":"https://api.github.com/users/k4yt3x/orgs","repos_url":"https://api.github.com/users/k4yt3x/repos","events_url":"https://api.github.com/users/k4yt3x/events{/privacy}","received_events_url":"https://api.github.com/users/k4yt3x/received_events","type":"User","site_admin":false}},{"url":"https://api.github.com/repos/k4yt3x/video2x/issues/comments/488236647","html_url":"https://github.com/k4yt3x/video2x/issues/86#issuecomment-488236647","issue_url":"https://api.github.com/repos/k4yt3x/video2x/issues/86","id":488236647,"node_id":"MDEyOklzc3VlQ29tbWVudDQ4ODIzNjY0Nw==","user":{"login":"nostalgicc","id":38463032,"node_id":"MDQ6VXNlcjM4NDYzMDMy","avatar_url":"https://avatars.githubusercontent.com/u/38463032?v=4","gravatar_id":"","url":"https://api.github.com/users/nostalgicc","html_url":"https://github.com/nostalgicc","followers_url":"https://api.github.com/users/nostalgicc/followers","following_url":"https://api.github.com/users/nostalgicc/following{/other_user}","gists_url":"https://api.github.com/users/nostalgicc/gists{/gist_id}","starred_url":"https://api.github.com/users/nostalgicc/starred{/owner}{/repo}","subscriptions_url":"https://api.github.com/users/nostalgicc/subscriptions","organizations_url":"https://api.github.com/users/nostalgicc/orgs","repos_url":"https://api.github.com/users/nostalgicc/repos","events_url":"https://api.github.com/users/nostalgicc/events{/privacy}","received_events_url":"https://api.github.com/users/nostalgicc/received_events","type":"User","site_admin":false},"created_at":"2019-05-01T08:42:40Z","updated_at":"2019-05-01T08:47:59Z","author_association":"NONE","body":"ok I followed this solution, tested a 2 second video, everything works perfectly. Will now try the previous again.\r\n\r\nI didn't even need to turn on the heater for the last few days so that's a plus(ง •̀_•́)ง","reactions":{"url":"https://api.github.com/repos/k4yt3x/video2x/issues/comments/488236647/reactions","total_count":0,"+1":0,"-1":0,"laugh":0,"hooray":0,"confused":0,"heart":0,"rocket":0,"eyes":0},"performed_via_github_app":null,"event":"commented","actor":{"login":"nostalgicc","id":38463032,"node_id":"MDQ6VXNlcjM4NDYzMDMy","avatar_url":"https://avatars.githubusercontent.com/u/38463032?v=4","gravatar_id":"","url":"https://api.github.com/users/nostalgicc","html_url":"https://github.com/nostalgicc","followers_url":"https://api.github.com/users/nostalgicc/followers","following_url":"https://api.github.com/users/nostalgicc/following{/other_user}","gists_url":"https://api.github.com/users/nostalgicc/gists{/gist_id}","starred_url":"https://api.github.com/users/nostalgicc/starred{/owner}{/repo}","subscriptions_url":"https://api.github.com/users/nostalgicc/subscriptions","organizations_url":"https://api.github.com/users/nostalgicc/orgs","repos_url":"https://api.github.com/users/nostalgicc/repos","events_url":"https://api.github.com/users/nostalgicc/events{/privacy}","received_events_url":"https://api.github.com/users/nostalgicc/received_events","type":"User","site_admin":false}},{"url":"https://api.github.com/repos/k4yt3x/video2x/issues/comments/488533014","html_url":"https://github.com/k4yt3x/video2x/issues/86#issuecomment-488533014","issue_url":"https://api.github.com/repos/k4yt3x/video2x/issues/86","id":488533014,"node_id":"MDEyOklzc3VlQ29tbWVudDQ4ODUzMzAxNA==","user":{"login":"nostalgicc","id":38463032,"node_id":"MDQ6VXNlcjM4NDYzMDMy","avatar_url":"https://avatars.githubusercontent.com/u/38463032?v=4","gravatar_id":"","url":"https://api.github.com/users/nostalgicc","html_url":"https://github.com/nostalgicc","followers_url":"https://api.github.com/users/nostalgicc/followers","following_url":"https://api.github.com/users/nostalgicc/following{/other_user}","gists_url":"https://api.github.com/users/nostalgicc/gists{/gist_id}","starred_url":"https://api.github.com/users/nostalgicc/starred{/owner}{/repo}","subscriptions_url":"https://api.github.com/users/nostalgicc/subscriptions","organizations_url":"https://api.github.com/users/nostalgicc/orgs","repos_url":"https://api.github.com/users/nostalgicc/repos","events_url":"https://api.github.com/users/nostalgicc/events{/privacy}","received_events_url":"https://api.github.com/users/nostalgicc/received_events","type":"User","site_admin":false},"created_at":"2019-05-02T01:58:54Z","updated_at":"2019-05-02T14:00:05Z","author_association":"NONE","body":"success! https://www.youtube.com/watch?v=bSOqG_EhYPQ&t=45s","reactions":{"url":"https://api.github.com/repos/k4yt3x/video2x/issues/comments/488533014/reactions","total_count":0,"+1":0,"-1":0,"laugh":0,"hooray":0,"confused":0,"heart":0,"rocket":0,"eyes":0},"performed_via_github_app":null,"event":"commented","actor":{"login":"nostalgicc","id":38463032,"node_id":"MDQ6VXNlcjM4NDYzMDMy","avatar_url":"https://avatars.githubusercontent.com/u/38463032?v=4","gravatar_id":"","url":"https://api.github.com/users/nostalgicc","html_url":"https://github.com/nostalgicc","followers_url":"https://api.github.com/users/nostalgicc/followers","following_url":"https://api.github.com/users/nostalgicc/following{/other_user}","gists_url":"https://api.github.com/users/nostalgicc/gists{/gist_id}","starred_url":"https://api.github.com/users/nostalgicc/starred{/owner}{/repo}","subscriptions_url":"https://api.github.com/users/nostalgicc/subscriptions","organizations_url":"https://api.github.com/users/nostalgicc/orgs","repos_url":"https://api.github.com/users/nostalgicc/repos","events_url":"https://api.github.com/users/nostalgicc/events{/privacy}","received_events_url":"https://api.github.com/users/nostalgicc/received_events","type":"User","site_admin":false}},{"url":"https://api.github.com/repos/k4yt3x/video2x/issues/comments/488559900","html_url":"https://github.com/k4yt3x/video2x/issues/86#issuecomment-488559900","issue_url":"https://api.github.com/repos/k4yt3x/video2x/issues/86","id":488559900,"node_id":"MDEyOklzc3VlQ29tbWVudDQ4ODU1OTkwMA==","user":{"login":"k4yt3x","id":21986859,"node_id":"MDQ6VXNlcjIxOTg2ODU5","avatar_url":"https://avatars.githubusercontent.com/u/21986859?v=4","gravatar_id":"","url":"https://api.github.com/users/k4yt3x","html_url":"https://github.com/k4yt3x","followers_url":"https://api.github.com/users/k4yt3x/followers","following_url":"https://api.github.com/users/k4yt3x/following{/other_user}","gists_url":"https://api.github.com/users/k4yt3x/gists{/gist_id}","starred_url":"https://api.github.com/users/k4yt3x/starred{/owner}{/repo}","subscriptions_url":"https://api.github.com/users/k4yt3x/subscriptions","organizations_url":"https://api.github.com/users/k4yt3x/orgs","repos_url":"https://api.github.com/users/k4yt3x/repos","events_url":"https://api.github.com/users/k4yt3x/events{/privacy}","received_events_url":"https://api.github.com/users/k4yt3x/received_events","type":"User","site_admin":false},"created_at":"2019-05-02T05:50:57Z","updated_at":"2019-05-02T05:50:57Z","author_association":"OWNER","body":"Damn so it does work. I'll look into why.","reactions":{"url":"https://api.github.com/repos/k4yt3x/video2x/issues/comments/488559900/reactions","total_count":0,"+1":0,"-1":0,"laugh":0,"hooray":0,"confused":0,"heart":0,"rocket":0,"eyes":0},"performed_via_github_app":null,"event":"commented","actor":{"login":"k4yt3x","id":21986859,"node_id":"MDQ6VXNlcjIxOTg2ODU5","avatar_url":"https://avatars.githubusercontent.com/u/21986859?v=4","gravatar_id":"","url":"https://api.github.com/users/k4yt3x","html_url":"https://github.com/k4yt3x","followers_url":"https://api.github.com/users/k4yt3x/followers","following_url":"https://api.github.com/users/k4yt3x/following{/other_user}","gists_url":"https://api.github.com/users/k4yt3x/gists{/gist_id}","starred_url":"https://api.github.com/users/k4yt3x/starred{/owner}{/repo}","subscriptions_url":"https://api.github.com/users/k4yt3x/subscriptions","organizations_url":"https://api.github.com/users/k4yt3x/orgs","repos_url":"https://api.github.com/users/k4yt3x/repos","events_url":"https://api.github.com/users/k4yt3x/events{/privacy}","received_events_url":"https://api.github.com/users/k4yt3x/received_events","type":"User","site_admin":false}},{"url":"https://api.github.com/repos/k4yt3x/video2x/issues/comments/490304936","html_url":"https://github.com/k4yt3x/video2x/issues/86#issuecomment-490304936","issue_url":"https://api.github.com/repos/k4yt3x/video2x/issues/86","id":490304936,"node_id":"MDEyOklzc3VlQ29tbWVudDQ5MDMwNDkzNg==","user":{"login":"k4yt3x","id":21986859,"node_id":"MDQ6VXNlcjIxOTg2ODU5","avatar_url":"https://avatars.githubusercontent.com/u/21986859?v=4","gravatar_id":"","url":"https://api.github.com/users/k4yt3x","html_url":"https://github.com/k4yt3x","followers_url":"https://api.github.com/users/k4yt3x/followers","following_url":"https://api.github.com/users/k4yt3x/following{/other_user}","gists_url":"https://api.github.com/users/k4yt3x/gists{/gist_id}","starred_url":"https://api.github.com/users/k4yt3x/starred{/owner}{/repo}","subscriptions_url":"https://api.github.com/users/k4yt3x/subscriptions","organizations_url":"https://api.github.com/users/k4yt3x/orgs","repos_url":"https://api.github.com/users/k4yt3x/repos","events_url":"https://api.github.com/users/k4yt3x/events{/privacy}","received_events_url":"https://api.github.com/users/k4yt3x/received_events","type":"User","site_admin":false},"created_at":"2019-05-08T00:45:25Z","updated_at":"2019-05-08T00:45:25Z","author_association":"OWNER","body":"This should be fixed with the newest update.","reactions":{"url":"https://api.github.com/repos/k4yt3x/video2x/issues/comments/490304936/reactions","total_count":0,"+1":0,"-1":0,"laugh":0,"hooray":0,"confused":0,"heart":0,"rocket":0,"eyes":0},"performed_via_github_app":null,"event":"commented","actor":{"login":"k4yt3x","id":21986859,"node_id":"MDQ6VXNlcjIxOTg2ODU5","avatar_url":"https://avatars.githubusercontent.com/u/21986859?v=4","gravatar_id":"","url":"https://api.github.com/users/k4yt3x","html_url":"https://github.com/k4yt3x","followers_url":"https://api.github.com/users/k4yt3x/followers","following_url":"https://api.github.com/users/k4yt3x/following{/other_user}","gists_url":"https://api.github.com/users/k4yt3x/gists{/gist_id}","starred_url":"https://api.github.com/users/k4yt3x/starred{/owner}{/repo}","subscriptions_url":"https://api.github.com/users/k4yt3x/subscriptions","organizations_url":"https://api.github.com/users/k4yt3x/orgs","repos_url":"https://api.github.com/users/k4yt3x/repos","events_url":"https://api.github.com/users/k4yt3x/events{/privacy}","received_events_url":"https://api.github.com/users/k4yt3x/received_events","type":"User","site_admin":false}},{"id":2325861048,"node_id":"MDExOkNsb3NlZEV2ZW50MjMyNTg2MTA0OA==","url":"https://api.github.com/repos/k4yt3x/video2x/issues/events/2325861048","actor":{"login":"k4yt3x","id":21986859,"node_id":"MDQ6VXNlcjIxOTg2ODU5","avatar_url":"https://avatars.githubusercontent.com/u/21986859?v=4","gravatar_id":"","url":"https://api.github.com/users/k4yt3x","html_url":"https://github.com/k4yt3x","followers_url":"https://api.github.com/users/k4yt3x/followers","following_url":"https://api.github.com/users/k4yt3x/following{/other_user}","gists_url":"https://api.github.com/users/k4yt3x/gists{/gist_id}","starred_url":"https://api.github.com/users/k4yt3x/starred{/owner}{/repo}","subscriptions_url":"https://api.github.com/users/k4yt3x/subscriptions","organizations_url":"https://api.github.com/users/k4yt3x/orgs","repos_url":"https://api.github.com/users/k4yt3x/repos","events_url":"https://api.github.com/users/k4yt3x/events{/privacy}","received_events_url":"https://api.github.com/users/k4yt3x/received_events","type":"User","site_admin":false},"event":"closed","commit_id":null,"commit_url":null,"created_at":"2019-05-08T00:45:25Z","state_reason":null,"performed_via_github_app":null}]